<svg width="512" height="512" xmlns:xlink="http://www.w3.org/1999/xlink" xmlns="http://www.w3.org/2000/svg">
  <path d="M0 0h512v512H0z" fill="#b3b3b3" />
  <path
    d="M466 242.875h-26.25V229.75h-28.47c-4.017-23.924-13.425-46.006-26.933-64.974l20.144-20.144-9.282-9.282 18.564-18.564-18.564-18.564-18.564 18.564-9.282-9.282-20.144 20.144c-18.974-13.508-41.055-22.916-64.974-26.932V72.25H269.12V46h-26.25v26.25h-13.12v28.47c-23.924 4.017-46.006 13.425-64.974 26.933l-20.144-20.144-9.282 9.282-18.564-18.564-18.564 18.564 18.564 18.564-9.282 9.282 20.144 20.144c-13.508 18.974-22.916 41.055-26.932 64.974H72.25v13.125H46v26.25h26.25v13.12h28.47c4.017 23.924 13.425 46.006 26.933 64.974l-20.144 20.144 9.282 9.282-18.564 18.564 18.564 18.564 18.564-18.564 9.282 9.282 20.144-20.144c18.974 13.508 41.055 22.916 64.974 26.933v28.465h13.125V466h26.25v-26.25h13.12v-28.47c23.924-4.017 46.006-13.425 64.974-26.933l20.144 20.144 9.282-9.282 18.564 18.564 18.564-18.564-18.564-18.564 9.282-9.282-20.144-20.144c13.508-18.974 22.916-41.055 26.933-64.974h28.465V269.12H466zM256 124.75V151c-57.897 0-105 47.103-105 105h-26.25c0-72.371 58.879-131.25 131.25-131.25z"
    stroke-width="5.25" />
</svg>